<svg xmlns="http://www.w3.org/2000/svg" viewBox="0 0 837.11 767.67"><defs><style>.cls-1{fill:#ffe7ea;}.cls-1,.cls-10,.cls-12,.cls-13,.cls-2,.cls-3,.cls-4,.cls-5,.cls-6,.cls-9{stroke:#4f4343;stroke-width:10px;}.cls-1,.cls-10,.cls-12,.cls-13,.cls-2,.cls-3,.cls-5,.cls-6,.cls-9{stroke-miterlimit:10;}.cls-2{fill:#ffb5bb;}.cls-3{fill:#dfb0b6;}.cls-12,.cls-4{fill:none;}.cls-4{stroke-linecap:round;stroke-linejoin:round;}.cls-5{fill:#c76f75;}.cls-6{fill:#db7b81;}.cls-7{fill:#cc5e63;}.cls-8{fill:#4f4343;}.cls-9{fill:#ff3658;}.cls-10{fill:#ffdbdf;}.cls-11{fill:#fff;}.cls-13{fill:#e86f80;}</style></defs><title>Asset 30</title><g id="Layer_2" data-name="Layer 2"><g id="요리"><path class="cls-1" d="M20.89,245.56c-64.34,44.71,83.85,95.27,138.77,245.21,35.86,97.9,77.92-1.44,77.92-36.24S89.25,198.07,20.89,245.56Zm61.56,56.87c-7.27,9-21.74,3.37-33.68-6.69S30,273.16,35.41,265.9c5.17-6.9,20.61-4.07,33,6.63S89.71,293.46,82.45,302.43Z"/><ellipse class="cls-2" cx="456.48" cy="513.36" rx="375.49" ry="97.26"/><path class="cls-3" d="M180.32,579.5c60,40.3,149.54,66.14,275.14,66.14,125.29,0,215.65-25.74,276.3-65.89v-.25c-60-40.29-149.55-66.14-275.14-66.14-125.3,0-215.65,25.75-276.3,65.9Z"/><path class="cls-4" d="M832,513.36c4.66,127.08-102.48,249.31-375.48,249.31S81,640.55,81,513.36"/><path class="cls-5" d="M463.91,468.78c-47.8-9-153.23-13.08-206.65,56s-29,126,48.31,136.32,136.12.75,193.8-23.4,74.42-37.59,125.5-39.92c103.29-4.69,83.72-99.08-1.39-96.18C484.5,506.29,525.33,480.31,463.91,468.78Z"/><path class="cls-6" d="M467.37,431.29c-47.8-9-153.23-13.09-206.65,55.95s-29,126,48.31,136.31,136.12.75,193.8-23.4,74.43-37.59,125.5-39.91c103.29-4.7,83.72-99.08-1.38-96.18C488,468.79,528.79,442.82,467.37,431.29Z"/><path class="cls-7" d="M523.79,478.63c-20.53-11.45-34.69-19.54-60.43-25.92s-88.66-29.2-152.82,15.89c-61.87,43.48-67.2,92.1-31.26,117.43s111.74,22.27,156,13.61c56.95-11.15,41.66-34.73,70.61-52.49C538.68,527,547.44,491.82,523.79,478.63Z"/><path class="cls-7" d="M599.64,478.08c-19.38,4.79-47.83-1.5-50.46,25.29-2.91,29.54-9.8,28.59-28,46.88s-41.16,42.49,1.51,27.37,60.53-25.73,86.42-26.51,81.65-14.24,69.72-40.3S631.71,470.15,599.64,478.08Z"/><ellipse class="cls-8" cx="321" cy="520.84" rx="20.73" ry="13.43" transform="translate(-189.29 183.33) rotate(-24.87)"/><ellipse class="cls-8" cx="444.91" cy="532.29" rx="20.73" ry="13.43" transform="translate(-182.62 236.51) rotate(-24.87)"/><path class="cls-9" d="M364.58,532.59c2.13-.12-.3,3.42,4.9,3.9s7.55-1.46,8.82-1.34,2.1,2.1,6.66,2.52,6.92-3.3,8.35-2.72S379,560.52,365,559.23,362.44,532.71,364.58,532.59Z"/><path class="cls-10" d="M81,513.36c0,127.19,102.48,249.31,375.49,249.31S836.62,640.44,832,513.36c0,53.72-168.11,97.26-375.48,97.26S81,567.08,81,513.36Z"/><line class="cls-10" x1="694.73" y1="555.37" x2="698.45" y2="515.15"/><path class="cls-11" d="M818.09,128.93A11.28,11.28,0,0,0,816,115.79L708.55,8.31a11.28,11.28,0,0,0-16.67.78L632.37,81l-26.15,31.58C661.05,105,736.18,103.82,818.09,128.93Z"/><path class="cls-3" d="M606.22,112.55l-14.73,17.79a5.3,5.3,0,0,0,.34,7.11,5.29,5.29,0,0,1,0,7.47L590,146.76l87.59,87.59,1.84-1.84a5.3,5.3,0,0,1,7.48,0,5.27,5.27,0,0,0,7.1.34l37.39-30.95,83.86-69.43a11.27,11.27,0,0,0,2.84-3.54C736.18,103.82,661.05,105,606.22,112.55Z"/><path class="cls-12" d="M694,232.85,815.25,132.47a11.28,11.28,0,0,0,.78-16.68L708.55,8.31a11.28,11.28,0,0,0-16.67.78L591.49,130.34a5.3,5.3,0,0,0,.34,7.11h0a5.29,5.29,0,0,1,0,7.47l-5.11,5.1a11.43,11.43,0,0,1-8,3.39A38,38,0,0,0,552,164.56h0c-14.89,14.89-27.87,30,25,82.86s68,39.84,82.85,25h0a38,38,0,0,0,11.16-26.77,11.38,11.38,0,0,1,3.38-8l5.1-5.11a5.3,5.3,0,0,1,7.48,0h0A5.27,5.27,0,0,0,694,232.85Z"/><line class="cls-12" x1="677.79" y1="234.56" x2="590.16" y2="146.93"/><path class="cls-13" d="M586.72,150a11.43,11.43,0,0,1-8,3.39A38,38,0,0,0,552,164.56h0c-14.89,14.89-27.87,30,25,82.86s68,39.84,82.85,25h0a38,38,0,0,0,11.16-26.77,11.38,11.38,0,0,1,3.38-8l3.26-3.27L590,146.76Z"/><ellipse class="cls-8" cx="586.52" cy="237.82" rx="4.3" ry="8.07" transform="translate(3.62 484.39) rotate(-45)"/><ellipse class="cls-8" cx="620.37" cy="253.42" rx="4.3" ry="8.07" transform="translate(2.51 512.89) rotate(-45)"/><ellipse class="cls-8" cx="570.92" cy="203.97" rx="4.3" ry="8.07" transform="translate(22.99 463.45) rotate(-45)"/><circle class="cls-8" cx="544.82" cy="354.44" r="11.8"/><circle class="cls-8" cx="506.81" cy="277.17" r="11.8"/><circle class="cls-8" cx="412.83" cy="363.1" r="11.8"/></g></g></svg>