<svg xmlns="http://www.w3.org/2000/svg" viewBox="0 0 1029.99 544.73"><defs><style>.cls-1{fill:#fff;}.cls-2{fill:#dfb0b6;}.cls-10,.cls-11,.cls-12,.cls-13,.cls-2,.cls-3,.cls-4,.cls-6,.cls-7,.cls-8{stroke:#4f4343;}.cls-10,.cls-11,.cls-12,.cls-13,.cls-2,.cls-3,.cls-4,.cls-6,.cls-8,.cls-9{stroke-miterlimit:10;}.cls-10,.cls-11,.cls-12,.cls-13,.cls-2,.cls-3,.cls-4,.cls-6,.cls-7,.cls-8,.cls-9{stroke-width:10px;}.cls-3,.cls-7,.cls-9{fill:none;}.cls-4{fill:#e86f80;}.cls-5{fill:#4f4343;}.cls-6{fill:#b0767a;}.cls-6,.cls-7,.cls-8,.cls-9{stroke-linecap:round;}.cls-7{stroke-linejoin:round;}.cls-8{fill:#ff3658;}.cls-9{stroke:#ad666b;}.cls-10{fill:#da1a29;}.cls-11{fill:#2c9500;}.cls-12{fill:#e3e4b2;}.cls-13{fill:#ff5900;}</style></defs><title>dd</title><g id="Layer_2" data-name="Layer 2"><g id="구운_고기" data-name="구운 고기"><path class="cls-1" d="M53.6,401.25a171,171,0,0,0,73.75,7.24l-4.43-47.09a3.9,3.9,0,0,0-3.89-3.53,3.9,3.9,0,0,1-3.89-3.9v-1.92H23.71V354a3.91,3.91,0,0,1-3.9,3.9,3.9,3.9,0,0,0-3.88,3.53l-3.36,35.66C22.36,395.23,35.93,395.36,53.6,401.25Z"/><path class="cls-2" d="M127.35,408.49a171,171,0,0,1-73.75-7.24c-17.67-5.89-31.24-6-41-4.19L5,477.06a8.33,8.33,0,0,0,8.29,9.12H125.51a8.34,8.34,0,0,0,8.3-9.12Z"/><path class="cls-3" d="M15.93,361.4,5,477.06a8.33,8.33,0,0,0,8.29,9.12H125.51a8.34,8.34,0,0,0,8.3-9.12L122.92,361.4a3.9,3.9,0,0,0-3.89-3.53h0a3.9,3.9,0,0,1-3.89-3.9v-5.33a8.44,8.44,0,0,1,2.39-5.93,28,28,0,0,0,8.16-19.79h0c0-15.54-1.13-30.22-56.27-30.22s-56.26,14.68-56.26,30.22h0a28,28,0,0,0,8.15,19.79,8.41,8.41,0,0,1,2.4,5.93V354a3.91,3.91,0,0,1-3.9,3.9h0A3.9,3.9,0,0,0,15.93,361.4Z"/><line class="cls-3" x1="23.5" y1="352.05" x2="114.95" y2="352.05"/><path class="cls-4" d="M115.14,348.64a8.44,8.44,0,0,1,2.39-5.93,28,28,0,0,0,8.16-19.79h0c0-15.54-1.13-30.22-56.27-30.22s-56.26,14.68-56.26,30.22h0a28,28,0,0,0,8.15,19.79,8.41,8.41,0,0,1,2.4,5.93v3.41h91.43Z"/><ellipse class="cls-5" cx="69.42" cy="302.72" rx="5.96" ry="3.18"/><ellipse class="cls-5" cx="43.62" cy="312.24" rx="5.96" ry="3.18"/><ellipse class="cls-5" cx="95.23" cy="312.24" rx="5.96" ry="3.18"/><rect class="cls-6" x="372.34" y="440.68" width="33.97" height="71.81" rx="16.99"/><rect class="cls-6" x="517.97" y="440.68" width="33.97" height="71.81" rx="16.99"/><path class="cls-6" d="M503.17,7.58c-97.66-10.06-296.82,2.36-324,165.56S256,457,409.75,464.05s252.41-26.09,334-91.13,98.61-98.11,190.62-113.65C1120.46,227.86,986.46,23.6,832.13,47.35,580.12,86.13,628.67,20.49,503.17,7.58Z"/><path class="cls-6" d="M290.85,235A34.57,34.57,0,1,1,360,235"/><path class="cls-7" d="M531.77,235a34.57,34.57,0,1,1,69.13,0"/><path class="cls-8" d="M418.15,252c3.82-.7,3,7.59,13.09,7.59s12.46-4.74,14.92-4.74,6.06,4.2,14.92,4.2,9.37-8.7,12.62-7.7,0,59.33-27.14,59.33S414.33,252.74,418.15,252Z"/><line class="cls-9" x1="362.42" y1="90.16" x2="316.94" y2="147.01"/><line class="cls-9" x1="317" y1="61.87" x2="241.85" y2="158.53"/><line class="cls-9" x1="715.1" y1="153.78" x2="634.99" y2="277.15"/><line class="cls-9" x1="814.43" y1="131.35" x2="675.04" y2="358.85"/><line class="cls-9" x1="468.65" y1="54.87" x2="558.84" y2="99.34"/><line class="cls-9" x1="296.93" y1="332.84" x2="416.3" y2="394.27"/><line class="cls-9" x1="922.05" y1="99.34" x2="847.92" y2="219.18"/><line class="cls-9" x1="657.78" y1="107.4" x2="947.9" y2="198.22"/><line class="cls-9" x1="593.45" y1="157.85" x2="858.34" y2="252.46"/><line class="cls-9" x1="543.76" y1="44.76" x2="468.28" y2="154.07"/><line class="cls-9" x1="272.65" y1="77.89" x2="411.2" y2="157.22"/><line class="cls-9" x1="369.83" y1="325.18" x2="319.55" y2="401.15"/><ellipse class="cls-10" cx="161.78" cy="474.55" rx="43.33" ry="41.86"/><path class="cls-11" d="M191.54,440.88c0-2.67-1.83-5-4.65-6.51a.73.73,0,0,1-.37-.57c-.34-4.61-5.69-8.27-12.25-8.27a16.33,16.33,0,0,0-5.67,1,.68.68,0,0,1-.63-.09,12.19,12.19,0,0,0-7.12-2.22,12.4,12.4,0,0,0-6.15,1.6.69.69,0,0,1-.56.05,16.8,16.8,0,0,0-5.78-1c-6.54,0-11.85,3.47-11.85,7.75a5.32,5.32,0,0,0,.44,2.08.69.69,0,0,1-.26.83,7.24,7.24,0,0,0-3.57,5.84c0,4.09,4.35,7.48,10.06,8.14a.65.65,0,0,1,.59.53c.76,4.76,8.68,8.5,18.35,8.5,9.32,0,17-7.94,18.23-9.37a.69.69,0,0,1,.48-.23C186.81,448.68,191.54,445.17,191.54,440.88Z"/><path class="cls-12" d="M865.41,361.53c-4.78,11.05,22.11,27.92,14.87,62.68s-35.33,53-27.72,61.31,69.4-20,69.43-71.82S870.2,350.48,865.41,361.53Z"/><path class="cls-12" d="M934,392.86c-11,6-10.17,37.74-39.66,61.69s-58.9,24.54-59.71,36.21,58.15,24.33,94.95-18.26S945,386.83,934,392.86Z"/><path class="cls-13" d="M821.45,436.63c82.65,10.54,95.06,92.42,0,92.84-94.06.41-111.1-49.94-92.7-79.85S784.24,431.88,821.45,436.63Z"/><path class="cls-13" d="M736.63,447.25c47.32-1.91,98.64,43.81,36,74.93-70.7,35.12-117.3,1.27-111.3-31.12S689.31,449.15,736.63,447.25Z"/><ellipse class="cls-10" cx="233.26" cy="490.77" rx="51.99" ry="48.96"/><path class="cls-11" d="M260.06,439.4a11.87,11.87,0,0,0-3.52,0,.76.76,0,0,1-.81-.42c-1.26-2.76-5.91-5.53-12.14-6.91s-12.42-.94-15.56.91a.68.68,0,0,1-.54.09,23.38,23.38,0,0,0-4.85-.49c-6.65,0-12.15,2.66-13.15,6.15a.74.74,0,0,1-.79.54c-.39,0-.76,0-1.12,0a10.17,10.17,0,1,0,0,20.32,16.3,16.3,0,0,0,3.46-.42.76.76,0,0,1,.9.57c1.17,5,8.84,9.34,18.7,10.12,11,.88,20.64-2.95,22-8.61a8.2,8.2,0,0,0,.86.18,13.42,13.42,0,0,0,14.44-9.25C269.73,446.06,266.22,440.36,260.06,439.4Z"/></g></g></svg>