<svg xmlns="http://www.w3.org/2000/svg" viewBox="0 0 1200.44 506.56"><defs><style>.cls-1{fill:#ffb5bb;}.cls-1,.cls-2,.cls-3{stroke:#4f4343;stroke-linecap:round;stroke-linejoin:round;stroke-width:35px;}.cls-2{fill:none;}.cls-3{fill:#4f4343;}</style></defs><title>Asset 35</title><g id="Layer_2" data-name="Layer 2"><g id="로고"><path class="cls-1" d="M748,389.6c9.63,36.95-10.47,65.08-39.89,72.74s-57-8-66.65-45,6.43-73.12,35.85-80.78S738.41,352.65,748,389.6Z"/><path class="cls-2" d="M454.13,447.13s99.73,82.26,252,16.35"/><line class="cls-2" x1="694.58" y1="399.68" x2="718.07" y2="458.82"/><ellipse class="cls-3" cx="284.01" cy="216.99" rx="136.28" ry="174.89"/><path class="cls-2" d="M61.45,368.49C-7.94,295.67-18.86,25.06,207.84,17.63c103.62-3.4,187.72,62.23,187.72,139"/><path class="cls-2" d="M1182.94,273.16C1053,193,785.6,238.72,785.6,238.72c40-90.86,265.79-171.63,366-140.74"/></g></g></svg>