<?xml version="1.0" encoding="utf-8"?>
<!-- Generator: Adobe Illustrator 23.0.1, SVG Export Plug-In . SVG Version: 6.00 Build 0)  -->
<svg version="1.1" id="Layer_1" xmlns="http://www.w3.org/2000/svg" xmlns:xlink="http://www.w3.org/1999/xlink" x="0px" y="0px"
	 viewBox="0 0 553.5 556.4" style="enable-background:new 0 0 553.5 556.4;" xml:space="preserve">
<style type="text/css">
	.st0{fill:#EEEEEE;}
	.st1{fill:#DFB0B6;}
	.st2{fill:none;stroke:#4F4343;stroke-width:10;stroke-linecap:round;stroke-linejoin:round;stroke-miterlimit:10;}
	.st3{fill:none;stroke:#4F4343;stroke-width:5;stroke-linecap:round;stroke-linejoin:round;stroke-miterlimit:10;}
	.st4{fill:#FFE7EA;stroke:#4F4343;stroke-width:10;stroke-linecap:round;stroke-linejoin:round;stroke-miterlimit:10;}
	.st5{fill:#EEEEEE;stroke:#4F4343;stroke-width:10;stroke-linecap:round;stroke-linejoin:round;stroke-miterlimit:10;}
	.st6{fill:#E86F80;stroke:#4F4343;stroke-width:10;stroke-linecap:round;stroke-linejoin:round;stroke-miterlimit:10;}
</style>
<g>
	<polygon class="st0" points="160.9,546.6 198.9,487.8 485.8,406.5 498.9,416.9 463.2,472.2 402.7,491.3 206.1,543.3 174.9,550.4 	
		"/>
	<polygon class="st1" points="160.9,546.6 284.1,355.8 199.3,60.4 90.3,90.5 54.2,140.9 49.2,153.6 48.6,160.2 143.2,523.2 
		148.1,534.4 	"/>
	<path class="st2" d="M499.5,395.2L406.2,42.5c-5-19-22.8-30.7-39.6-26.3L97.8,87.3c-7,1.8-13.1,6.3-17.2,12.7l-26.4,40.8
		c-5.4,8.4-7,19.3-4.3,29.7l93.2,352.6c5,19,22.8,30.7,39.6,26.3l268.9-71.1c7-1.8,13.1-6.3,17.2-12.7l26.4-40.8
		C500.6,416.4,502.2,405.5,499.5,395.2z"/>
	<line class="st2" x1="198.9" y1="487.8" x2="160.9" y2="546.6"/>
	<line class="st3" x1="235" y1="505.3" x2="487.9" y2="438.5"/>
	<line class="st3" x1="326" y1="497" x2="472.2" y2="458.3"/>
	<path class="st4" d="M468.7,424.9l-251.8,66.5c-10.7,2.8-21.6-3.5-24.4-14.2L92.9,100.6c-2.8-10.7,3.5-21.6,14.2-24.4L358.9,9.6
		c26.7-7.1,54.1,8.9,61.1,35.6l84.2,318.7C511.3,390.5,495.4,417.9,468.7,424.9z"/>
	<path class="st5" d="M372.8,139.7c-5.4-17.2-24.2-27.4-43.1-23.5c-4.6,1-8.9,2.7-12.6,5c-2.2,1.3-5.1,1.1-6.8-0.7
		c-10.6-11-27.5-16-44.2-11.6c-16.7,4.4-28.9,17.1-32.7,31.9c-0.6,2.4-3,4.1-5.6,4c-4.4-0.1-8.9,0.5-13.4,1.9
		c-18.4,5.9-29.7,24.1-25.9,41.7c2.7,12.7,12.3,22,24.2,25.7c6.6,2,11.5,7.2,13.1,13.5l15.6,59c2.8,10.6,14.3,16.8,25.6,13.8
		l92.8-24.5c11.4-3,18.3-14,15.5-24.6l-15.6-59c-1.7-6.3,0-13.2,4.7-18.2C373,164.9,376.7,152.1,372.8,139.7z"/>
	<line class="st6" x1="242.6" y1="349" x2="405" y2="306"/>
	<line class="st6" x1="249.7" y1="375.8" x2="412.1" y2="332.8"/>
	<line class="st6" x1="256.8" y1="402.6" x2="419.2" y2="359.7"/>
</g>
</svg>
